<svg width="987" height="883" viewBox="0 0 987 883" fill="none" xmlns="http://www.w3.org/2000/svg">
<g clip-path="url(#clip0)">
<rect width="987" height="883" fill="#FAFAFA"/>
<path opacity="0.5" d="M668.773 214.509L1475.32 455.967L-95.0896 568.523L668.773 214.509Z" fill="#3C5E83"/>
<path d="M1055.5 229L1700.26 541.75H410.744L1055.5 229Z" fill="#EEEEEE"/>
<path d="M1112.5 99L1757.26 415.5H467.744L1112.5 99Z" fill="#3C5E83"/>
<rect x="-197" y="413" width="1277" height="129" fill="#EEEEEE"/>
<path opacity="0.5" d="M-60 85L878.771 529H-998.772L-60 85Z" fill="#3C5E83"/>
<path d="M-89.6071 165.169L749.792 534.179L-937.96 513.102L-89.6071 165.169Z" fill="#3C5E83"/>
<path d="M-65 279L752.528 615H-882.528L-65 279Z" fill="#EEEEEE"/>
<rect x="-94" y="517" width="1192" height="383" fill="#EEEEEE"/>
<g filter="url(#filter0_d)">
<path d="M803.901 373.941L866.125 331.059L946.097 425.818L803.901 373.941Z" fill="url(#paint0_linear)"/>
</g>
</g>
<defs>
<filter id="filter0_d" x="800.901" y="331.059" width="150.196" height="110.758" filterUnits="userSpaceOnUse" color-interpolation-filters="sRGB">
<feFlood flood-opacity="0" result="BackgroundImageFix"/>
<feColorMatrix in="SourceAlpha" type="matrix" values="0 0 0 0 0 0 0 0 0 0 0 0 0 0 0 0 0 0 127 0"/>
<feOffset dx="1" dy="12"/>
<feGaussianBlur stdDeviation="2"/>
<feColorMatrix type="matrix" values="0 0 0 0 0 0 0 0 0 0 0 0 0 0 0 0 0 0 0.08 0"/>
<feBlend mode="normal" in2="BackgroundImageFix" result="effect1_dropShadow"/>
<feBlend mode="normal" in="SourceGraphic" in2="effect1_dropShadow" result="shape"/>
</filter>
<linearGradient id="paint0_linear" x1="803.901" y1="373.941" x2="880.535" y2="309.265" gradientUnits="userSpaceOnUse">
<stop stop-color="#ACB0B4"/>
<stop offset="1" stop-color="#7B8FA4" stop-opacity="0"/>
</linearGradient>
<clipPath id="clip0">
<rect width="987" height="883" fill="white"/>
</clipPath>
</defs>
</svg>
